<?xml version="1.0" encoding="utf-8"?>
<!-- Generator: Adobe Illustrator 28.1.0, SVG Export Plug-In . SVG Version: 6.00 Build 0)  -->
<svg version="1.1" id="Layer_1" xmlns="http://www.w3.org/2000/svg" xmlns:xlink="http://www.w3.org/1999/xlink" x="0px" y="0px"
	 viewBox="0 0 1063.68 228.12" style="enable-background:new 0 0 1063.68 228.12;" xml:space="preserve">
<style type="text/css">
	.st0{fill:#346783;}
	.st1{fill:#3D857B;}
	.st2{fill:#133851;}
	.st3{fill:#FFFFFF;}
	.st4{fill:#FB8F00;}
	.st5{fill:#346786;}
	.st6{fill:#808285;}
	.st7{fill:#6D6E71;}
	.st8{fill:#003A58;}
	.st9{fill:#231F20;}
	.st10{fill:#8F9194;}
	.st11{fill:#FE9200;}
	.st12{fill:#7C7C7C;}
	.st13{fill:#01678A;}
	.st14{fill:#808082;}
	.st15{fill:#CDCFD0;}
	.st16{fill:#E3E4E5;}
</style>
<g>
	<g>
		<ellipse class="st0" cx="124.91" cy="111.07" rx="94.23" ry="94.23"/>
		<polygon class="st1" points="195.87,144.94 219.15,205.2 159.16,181.64 		"/>
		<path class="st2" d="M219.15,110.97c0-14.52-3.29-28.22-9.04-40.27l-10.14-10.14l-74.78,21.37L50.41,60.56l7.4,7.4l0.27,0.27l0,0
			l3.01,3.01c-6.85,6.85-10.96,16.16-10.96,26.57c0,11.23,4.93,21.37,13.15,28.22l77.8,77.8c13.42-2.19,26.02-7.4,36.98-14.79
			l41.36,16.16l-16.16-41.36C213.4,148.77,219.15,130.42,219.15,110.97z"/>
		<path class="st3" d="M199.7,60.29H50.14l10.96,10.96c-6.85,6.85-10.96,16.16-10.96,26.57c0,20.55,16.71,37.53,37.53,37.53
			c10.41,0,19.72-4.11,26.57-10.96l10.96,10.96l10.96-10.96c6.85,6.85,16.16,10.96,26.57,10.96c20.55,0,37.53-16.71,37.53-37.53
			c0-10.41-4.11-19.72-10.96-26.57L199.7,60.29z"/>
		<path class="st0" d="M87.67,107.95c-5.48,0-10.14-4.38-10.14-10.14s4.38-10.14,10.14-10.14c5.48,0,10.14,4.38,10.14,10.14
			S93.14,107.95,87.67,107.95z"/>
		<path class="st0" d="M162.45,107.95c-5.48,0-10.14-4.38-10.14-10.14s4.38-10.14,10.14-10.14c5.48,0,10.14,4.38,10.14,10.14
			S167.93,107.95,162.45,107.95z"/>
	</g>
	<g>
		<g>
			<path class="st4" d="M361.98,165.2v-12.56c-3.61,3.22-6.38,5.48-8.31,6.76c-3.22,2.19-6.44,3.86-9.66,5.02
				c-3.22,1.16-6.25,2.03-9.08,2.61c-2.83,0.58-5.41,0.93-7.73,1.06c-2.32,0.13-4.12,0.19-5.41,0.19c-2.45,0-5.99-0.29-10.63-0.87
				s-9.85-2.22-15.65-4.93c-6.18-2.96-11.5-6.83-15.94-11.59c-4.44-4.76-8.08-10.05-10.92-15.84c-2.83-5.8-4.93-11.95-6.28-18.45
				c-1.35-6.5-2.03-13.04-2.03-19.61c0-1.67,0.1-4.02,0.29-7.05c0.19-3.03,0.64-6.41,1.35-10.14c0.71-3.73,1.8-7.73,3.28-11.98
				c1.48-4.25,3.44-8.47,5.89-12.66c2.44-4.18,5.54-8.21,9.27-12.08c3.73-3.86,8.24-7.27,13.52-10.24c2.83-1.67,7.05-3.54,12.66-5.6
				c5.6-2.06,12.59-3.09,20.96-3.09c6.31,0,12.08,0.65,17.29,1.93c5.22,1.29,9.82,2.9,13.81,4.83c3.99,1.93,7.41,3.96,10.24,6.09
				c2.83,2.13,5.15,3.96,6.96,5.51c2.44,2.19,4.54,4.28,6.28,6.28c1.74,2,3.58,4.28,5.51,6.86L361.79,71.3
				c-0.13-0.26-0.45-0.77-0.97-1.55c-0.52-0.77-1.16-1.71-1.93-2.8c-0.77-1.09-1.68-2.22-2.7-3.38c-1.03-1.16-2.06-2.19-3.09-3.09
				c-2.19-1.93-4.44-3.48-6.76-4.64c-2.32-1.16-4.51-2-6.57-2.51c-2.06-0.51-3.96-0.84-5.7-0.97c-1.74-0.13-3.06-0.19-3.96-0.19
				c-0.65,0-1.64,0.03-3,0.1c-1.35,0.07-2.9,0.26-4.64,0.58c-1.74,0.32-3.57,0.81-5.51,1.45c-1.93,0.65-3.8,1.55-5.6,2.7
				c-2.06,1.29-4.09,3.03-6.09,5.22c-2,2.19-3.8,4.9-5.41,8.11c-1.61,3.22-2.93,6.96-3.96,11.21c-1.03,4.25-1.55,9.08-1.55,14.49
				c0,0.77,0.06,2.42,0.19,4.93c0.13,2.51,0.48,5.41,1.06,8.69c0.58,3.28,1.51,6.73,2.8,10.34c1.29,3.61,3.09,6.83,5.41,9.66
				c1.8,2.19,3.67,3.86,5.6,5.02c1.93,1.16,3.35,2,4.25,2.51c1.29,0.65,3.38,1.42,6.28,2.32c2.9,0.9,6.28,1.35,10.14,1.35
				c1.16,0,2.77-0.06,4.83-0.19c2.06-0.13,4.38-0.64,6.96-1.55c0.64-0.26,1.61-0.68,2.9-1.26c1.29-0.58,2.67-1.35,4.15-2.32
				c1.48-0.97,2.93-2.19,4.35-3.67c1.42-1.48,2.64-3.25,3.67-5.31c1.03-2.19,1.74-4.44,2.12-6.76c0.39-2.32,0.64-3.8,0.77-4.44
				h-30.53V89.46h59.32v75.74H361.98z"/>
			<path class="st4" d="M401.21,165.2V28.79h100.86v26.28h-66.85v24.93h62.41v25.89h-62.41v32.46h73.04v26.86H401.21z"/>
			<path class="st4" d="M597.51,165.2l-49.46-84.43l1.16,84.43h-32.85V28.79h33.43l49.85,85.6l-1.35-85.6h32.65V165.2H597.51z"/>
			<path class="st4" d="M649.29,165.2v-32.27h30.53v32.27H649.29z"/>
			<path class="st5" d="M691.99,53.52V30.14h23.19v23.38H691.99z M691.99,165.2V68.59h23.19v96.61H691.99z"/>
			<path class="st5" d="M787.44,165.2l-0.58-7.54c-1.8,1.55-3.48,2.74-5.02,3.57c-1.55,0.84-2.83,1.45-3.86,1.84
				c-3.22,1.42-6.38,2.51-9.47,3.28c-3.09,0.77-6.44,1.16-10.05,1.16c-1.16,0-2.99-0.1-5.51-0.29c-2.51-0.19-5.28-0.77-8.31-1.74
				c-3.03-0.97-6.09-2.44-9.18-4.44c-3.09-2-5.73-4.8-7.92-8.4c-0.77-1.29-1.71-3.22-2.8-5.8c-1.1-2.58-1.58-5.8-1.45-9.66
				c0-1.29,0.13-2.93,0.39-4.93c0.26-2,0.84-4.09,1.74-6.28c0.9-2.19,2.22-4.41,3.96-6.67c1.74-2.25,4.09-4.35,7.05-6.28
				c3.99-2.71,7.92-4.54,11.79-5.51c3.86-0.97,8.05-1.9,12.56-2.8c3.6-0.77,6.67-1.42,9.18-1.93c2.51-0.51,4.76-1,6.76-1.45
				c2-0.45,3.83-0.93,5.51-1.45c1.67-0.51,3.41-1.09,5.22-1.74c0-1.29-0.07-2.64-0.19-4.06c-0.13-1.42-0.52-2.71-1.16-3.86
				c-1.03-1.8-2.77-3.35-5.22-4.64c-2.45-1.29-5.8-1.93-10.05-1.93c-4.51,0-8.15,0.58-10.92,1.74c-2.77,1.16-4.8,2.58-6.09,4.25
				c-1.42,1.67-2.19,3.35-2.32,5.02c-0.13,1.68-0.19,2.83-0.19,3.48l-23.57-1.35c0-1.03,0.13-2.42,0.39-4.15
				c0.26-1.74,0.71-3.6,1.35-5.6c0.64-2,1.67-4.09,3.09-6.28c1.42-2.19,3.28-4.25,5.6-6.18c2.96-2.45,6.92-4.54,11.88-6.28
				c4.96-1.74,11.62-2.61,20-2.61c7.99,0,14.42,0.71,19.32,2.13c4.89,1.42,8.82,3.22,11.79,5.41c2.06,1.42,3.64,2.87,4.73,4.35
				c1.09,1.48,1.84,2.61,2.22,3.38c1.29,2.58,2.03,5.41,2.22,8.5c0.19,3.09,0.29,5.99,0.29,8.69v51.4c0,1.8,0.03,3.35,0.1,4.64
				c0.06,1.29,0.26,2.48,0.58,3.57c0.32,1.1,0.74,2.22,1.26,3.38c0.51,1.16,1.29,2.51,2.32,4.06H787.44z M787.44,117.09
				c-1.93,1.03-4.28,2-7.05,2.9c-2.77,0.9-6.54,1.74-11.3,2.51c-2.58,0.52-5.22,0.97-7.92,1.35c-2.71,0.39-5.28,1.29-7.73,2.7
				c-1.68,1.03-3.03,2.35-4.06,3.96c-1.03,1.61-1.55,3.51-1.55,5.7c0,2.96,1.19,5.6,3.57,7.92c2.38,2.32,6.47,3.48,12.27,3.48
				c3.22,0,6.09-0.35,8.6-1.06c2.51-0.71,4.7-1.61,6.57-2.7c1.87-1.09,3.41-2.29,4.64-3.58c1.22-1.29,2.09-2.51,2.61-3.67
				c0.77-1.55,1.19-3.03,1.26-4.44c0.06-1.42,0.1-2.9,0.1-4.44V117.09z"/>
			<path class="st5" d="M826.08,165.2V28.79h23.57V165.2H826.08z"/>
			<path class="st5" d="M864.92,53.52V30.14h23.19v23.38H864.92z M864.92,165.2V68.59h23.19v96.61H864.92z"/>
			<path class="st5" d="M949.94,164.43c-1.55,0.26-3.7,0.58-6.47,0.97c-2.77,0.39-6.15,0.58-10.14,0.58
				c-6.44,0-11.43-0.71-14.97-2.13c-3.54-1.42-6.28-3.28-8.21-5.6c-1.03-1.16-1.74-2.25-2.13-3.28c-0.39-1.03-0.65-1.8-0.77-2.32
				c-0.52-1.55-0.84-3.93-0.97-7.15c-0.13-3.22-0.19-6.96-0.19-11.21V85.02h-20.03V68.59h20.03V34.2h23.19v34.39h20.67v16.42h-20.67
				v43.86c0,1.03,0,2.19,0,3.48c0,1.29,0.03,2.61,0.1,3.96c0.06,1.35,0.26,2.64,0.58,3.86c0.32,1.23,0.87,2.22,1.64,3
				c0.64,0.77,1.45,1.35,2.42,1.74c0.97,0.39,1.9,0.68,2.8,0.87c0.9,0.19,1.71,0.29,2.42,0.29c0.71,0,1.13,0,1.26,0
				c3.35,0,6.5-0.39,9.47-1.16V164.43z"/>
			<path class="st5" d="M1008.48,152.84c-0.9,2.96-1.9,6.38-3,10.24c-1.1,3.86-6.76,30.51-8.5,33.79
				c-3.65,9.07-12.14,11.66-15.36,12.37c-3.22,0.71-6.7,1.06-10.43,1.06c-3.74,0-6.51-0.13-8.31-0.39
				c-1.81-0.26-3.61-0.58-5.41-0.97v-20.09c4.64,0.64,8.34,0.68,11.11,0.1c2.77-0.58,5.05-1.58,6.86-3
				c4.46-2.51,5.2-14.22,5.46-14.86L944.52,68.59h24.93l21.64,72.07l18.16-72.07h23.77L1008.48,152.84z"/>
		</g>
		<g>
			<g>
				<path class="st6" d="M290.21,201.02c-0.05,0.2-0.12,0.48-0.21,0.84c-0.09,0.36-0.23,0.78-0.43,1.26
					c-0.18,0.43-0.45,0.99-0.83,1.69c-0.38,0.7-0.9,1.43-1.56,2.18c-0.66,0.75-1.47,1.46-2.42,2.14c-0.95,0.68-2.08,1.2-3.38,1.58
					c-0.95,0.28-1.81,0.44-2.57,0.51c-0.76,0.06-1.32,0.09-1.67,0.09c-1.18,0-2.23-0.11-3.15-0.32c-0.93-0.21-1.75-0.47-2.46-0.79
					c-0.71-0.31-1.33-0.66-1.86-1.03s-0.96-0.73-1.31-1.05c-0.45-0.4-0.92-0.92-1.41-1.56s-0.94-1.4-1.35-2.27
					c-0.41-0.88-0.75-1.88-1.01-3.02c-0.26-1.14-0.39-2.43-0.39-3.89c0-2.05,0.31-3.94,0.92-5.65c0.61-1.71,1.49-3.19,2.63-4.41
					c1.14-1.23,2.54-2.18,4.21-2.85c1.67-0.68,3.55-1.01,5.65-1.01c0.38,0,0.94,0.02,1.71,0.07c0.76,0.05,1.6,0.2,2.52,0.45
					c0.91,0.25,1.86,0.64,2.84,1.18c0.98,0.54,1.88,1.28,2.7,2.24c0.55,0.65,1.01,1.31,1.37,1.99c0.36,0.68,0.68,1.4,0.96,2.18
					l-3.57,0.71c-0.23-0.65-0.44-1.17-0.64-1.54c-0.2-0.38-0.39-0.69-0.56-0.94c-0.23-0.33-0.54-0.69-0.96-1.11
					s-0.92-0.79-1.52-1.15s-1.3-0.65-2.1-0.9c-0.8-0.25-1.73-0.38-2.78-0.38c-0.33,0-0.85,0.04-1.58,0.11
					c-0.73,0.08-1.49,0.29-2.29,0.64c-1.4,0.6-2.48,1.4-3.23,2.39s-1.3,2-1.65,3.04s-0.56,2-0.62,2.87
					c-0.06,0.88-0.09,1.5-0.09,1.88c0,1.6,0.17,3,0.51,4.19c0.34,1.19,0.78,2.2,1.33,3.04c0.55,0.84,1.16,1.52,1.82,2.05
					c0.66,0.53,1.32,0.93,1.97,1.2c0.35,0.12,0.85,0.27,1.48,0.43c0.64,0.16,1.43,0.24,2.38,0.24c0.23,0,0.58-0.01,1.07-0.04
					c0.49-0.02,1.03-0.12,1.63-0.3c0.25-0.08,0.59-0.2,1.01-0.38c0.43-0.17,0.87-0.42,1.33-0.73c0.46-0.31,0.93-0.71,1.39-1.2
					c0.46-0.49,0.88-1.07,1.26-1.75c0.2-0.4,0.39-0.84,0.56-1.33c0.17-0.49,0.35-1.17,0.53-2.05L290.21,201.02z"/>
				<path class="st6" d="M334.04,210.63l-7.25-11.27h-6.84v11.27h-3.46v-26.52h9.88c0.43,0,0.85-0.01,1.26-0.02s0.83-0.01,1.26,0.02
					c0.93,0.05,1.73,0.15,2.42,0.3c0.69,0.15,1.29,0.34,1.8,0.58s0.96,0.51,1.33,0.83s0.7,0.63,0.98,0.96
					c0.35,0.43,0.71,1.04,1.07,1.86c0.36,0.81,0.54,1.88,0.54,3.21c0,0.28-0.03,0.68-0.08,1.22c-0.05,0.54-0.19,1.12-0.41,1.75
					c-0.23,0.63-0.58,1.25-1.05,1.88c-0.48,0.63-1.14,1.15-1.99,1.58c-0.33,0.18-0.68,0.33-1.05,0.47
					c-0.38,0.14-0.93,0.27-1.65,0.39l7.44,11.49H334.04z M333.55,191.87c0-0.17-0.01-0.43-0.04-0.77c-0.03-0.34-0.11-0.69-0.24-1.07
					c-0.14-0.37-0.35-0.76-0.64-1.16c-0.29-0.4-0.68-0.75-1.18-1.05c-0.7-0.42-1.45-0.65-2.23-0.69c-0.79-0.04-1.58-0.06-2.39-0.06
					h-6.87v9.31h7.06c0.5,0,1.01-0.01,1.54-0.02c0.53-0.01,1.04-0.07,1.56-0.19c0.51-0.11,0.99-0.29,1.43-0.54
					c0.44-0.25,0.83-0.6,1.18-1.05c0.3-0.42,0.51-0.86,0.64-1.31C333.49,192.84,333.55,192.37,333.55,191.87z"/>
				<path class="st6" d="M364.12,210.63v-26.52h18.25v3.12H367.5v8.19h12.92v3.08H367.5v9.05h15.32v3.08H364.12z"/>
				<path class="st6" d="M426.47,210.63l-2.89-8.11h-10.1l-2.97,8.11h-3.76l10.1-26.52h3.68l9.65,26.52H426.47z M418.66,188.47
					l-4.06,11.08h7.92L418.66,188.47z"/>
				<path class="st6" d="M499.3,198.5v12.13h-3.57V198.5l-9.31-14.38h4.17l6.99,11.23l7.06-11.23h4.21L499.3,198.5z"/>
				<path class="st6" d="M592.48,201.02c-0.05,0.2-0.12,0.48-0.21,0.84c-0.09,0.36-0.23,0.78-0.43,1.26
					c-0.18,0.43-0.45,0.99-0.83,1.69c-0.38,0.7-0.9,1.43-1.56,2.18c-0.66,0.75-1.47,1.46-2.42,2.14c-0.95,0.68-2.08,1.2-3.38,1.58
					c-0.95,0.28-1.81,0.44-2.57,0.51c-0.76,0.06-1.32,0.09-1.67,0.09c-1.18,0-2.23-0.11-3.15-0.32c-0.93-0.21-1.75-0.47-2.46-0.79
					c-0.71-0.31-1.33-0.66-1.86-1.03s-0.96-0.73-1.31-1.05c-0.45-0.4-0.92-0.92-1.41-1.56s-0.94-1.4-1.35-2.27
					c-0.41-0.88-0.75-1.88-1.01-3.02c-0.26-1.14-0.39-2.43-0.39-3.89c0-2.05,0.31-3.94,0.92-5.65c0.61-1.71,1.49-3.19,2.63-4.41
					c1.14-1.23,2.54-2.18,4.21-2.85c1.67-0.68,3.55-1.01,5.65-1.01c0.38,0,0.94,0.02,1.71,0.07c0.76,0.05,1.6,0.2,2.52,0.45
					c0.91,0.25,1.86,0.64,2.84,1.18c0.98,0.54,1.88,1.28,2.7,2.24c0.55,0.65,1.01,1.31,1.37,1.99c0.36,0.68,0.68,1.4,0.96,2.18
					l-3.57,0.71c-0.23-0.65-0.44-1.17-0.64-1.54c-0.2-0.38-0.39-0.69-0.56-0.94c-0.23-0.33-0.54-0.69-0.96-1.11
					s-0.92-0.79-1.52-1.15s-1.3-0.65-2.1-0.9c-0.8-0.25-1.73-0.38-2.78-0.38c-0.33,0-0.85,0.04-1.58,0.11
					c-0.73,0.08-1.49,0.29-2.29,0.64c-1.4,0.6-2.48,1.4-3.23,2.39s-1.3,2-1.65,3.04s-0.56,2-0.62,2.87
					c-0.06,0.88-0.09,1.5-0.09,1.88c0,1.6,0.17,3,0.51,4.19c0.34,1.19,0.78,2.2,1.33,3.04c0.55,0.84,1.16,1.52,1.82,2.05
					c0.66,0.53,1.32,0.93,1.97,1.2c0.35,0.12,0.85,0.27,1.48,0.43c0.64,0.16,1.43,0.24,2.38,0.24c0.23,0,0.58-0.01,1.07-0.04
					c0.49-0.02,1.03-0.12,1.63-0.3c0.25-0.08,0.59-0.2,1.01-0.38c0.43-0.17,0.87-0.42,1.33-0.73c0.46-0.31,0.93-0.71,1.39-1.2
					c0.46-0.49,0.88-1.07,1.26-1.75c0.2-0.4,0.39-0.84,0.56-1.33c0.17-0.49,0.35-1.17,0.53-2.05L592.48,201.02z"/>
				<path class="st6" d="M644.46,197.15c0,0.35-0.02,0.86-0.06,1.52c-0.04,0.66-0.15,1.42-0.34,2.27c-0.19,0.85-0.46,1.75-0.83,2.69
					c-0.36,0.94-0.88,1.86-1.56,2.76c-0.38,0.5-0.86,1.03-1.45,1.6c-0.59,0.56-1.31,1.09-2.18,1.6s-1.88,0.91-3.04,1.24
					c-1.16,0.33-2.5,0.49-4,0.49c-0.4,0-0.95-0.03-1.63-0.08c-0.69-0.05-1.45-0.19-2.27-0.41c-0.83-0.22-1.69-0.56-2.59-1.01
					c-0.9-0.45-1.78-1.08-2.63-1.88c-0.45-0.4-0.91-0.91-1.39-1.54c-0.48-0.63-0.92-1.37-1.33-2.23c-0.41-0.86-0.75-1.86-1.01-2.99
					c-0.26-1.13-0.39-2.4-0.39-3.83c0-0.38,0.02-0.92,0.06-1.63s0.16-1.52,0.38-2.42c0.21-0.9,0.54-1.85,1-2.84
					c0.45-0.99,1.08-1.93,1.88-2.83c1.28-1.43,2.81-2.48,4.6-3.16c1.79-0.68,3.61-1.01,5.46-1.01c0.9,0,1.8,0.07,2.69,0.22
					c0.89,0.15,1.75,0.39,2.57,0.71c1.38,0.53,2.57,1.23,3.59,2.1c1.01,0.88,1.85,1.87,2.52,2.97c0.66,1.1,1.16,2.31,1.48,3.62
					C644.3,194.39,644.46,195.75,644.46,197.15z M640.63,197.15c0-0.23-0.01-0.61-0.04-1.15c-0.03-0.54-0.1-1.15-0.23-1.84
					c-0.13-0.69-0.33-1.41-0.6-2.18c-0.28-0.76-0.68-1.5-1.2-2.2c-0.6-0.83-1.26-1.48-1.99-1.95c-0.73-0.47-1.43-0.83-2.12-1.05
					c-0.69-0.23-1.33-0.36-1.92-0.41c-0.59-0.05-1.06-0.07-1.41-0.07c-1.08,0-2.03,0.12-2.85,0.38c-0.83,0.25-1.54,0.56-2.14,0.92
					c-0.6,0.36-1.11,0.75-1.52,1.17s-0.75,0.81-1,1.18c-0.73,1.05-1.25,2.25-1.56,3.59c-0.31,1.34-0.47,2.62-0.47,3.85
					c0,1.75,0.21,3.22,0.62,4.39c0.41,1.18,0.79,2.05,1.15,2.63c0.33,0.5,0.65,0.93,0.98,1.28c0.33,0.35,0.56,0.59,0.71,0.71
					c0.55,0.48,1.05,0.83,1.5,1.05c0.45,0.23,0.8,0.39,1.05,0.49c0.35,0.12,0.81,0.26,1.39,0.39c0.58,0.14,1.31,0.21,2.22,0.21
					c0.35,0,0.9-0.04,1.63-0.11c0.74-0.08,1.53-0.3,2.38-0.68c0.63-0.3,1.26-0.72,1.92-1.26c0.65-0.54,1.24-1.23,1.77-2.08
					s0.94-1.88,1.26-3.08S640.63,198.73,640.63,197.15z"/>
				<path class="st6" d="M693.37,210.63l0.49-22.24l-8.38,22.24h-2.74l-8.23-21.9l0.38,21.9h-3.46v-26.52h4.58l8.11,21.75
					l8.19-21.75h4.58v26.52H693.37z"/>
				<path class="st6" d="M744.97,191.59c0,0.85-0.11,1.67-0.32,2.46c-0.21,0.79-0.53,1.51-0.96,2.18c-0.43,0.66-0.96,1.25-1.61,1.75
					c-0.65,0.5-1.4,0.86-2.25,1.09c-0.48,0.13-1,0.21-1.58,0.26c-0.58,0.05-1.38,0.08-2.4,0.08h-7.66v11.23h-3.42v-26.52h11.46
					c1.05,0,2.03,0.04,2.93,0.13c0.9,0.09,1.79,0.42,2.67,1c0.75,0.48,1.33,1.03,1.75,1.65s0.73,1.25,0.94,1.86
					c0.21,0.61,0.34,1.18,0.39,1.69C744.95,190.96,744.97,191.34,744.97,191.59z M741.48,191.52c0-0.12-0.01-0.36-0.04-0.7
					c-0.03-0.34-0.1-0.69-0.23-1.07c-0.23-0.63-0.58-1.14-1.05-1.54c-0.48-0.4-1.03-0.69-1.65-0.86c-0.4-0.1-0.76-0.16-1.07-0.17
					c-0.31-0.01-0.67-0.02-1.07-0.02h-8.19v9.09h7.4c0.5,0,0.98,0,1.45,0c0.46,0,0.93-0.06,1.41-0.19c1.08-0.28,1.85-0.84,2.33-1.71
					C741.24,193.49,741.48,192.54,741.48,191.52z"/>
				<path class="st6" d="M786.4,210.63l-2.89-8.11h-10.1l-2.97,8.11h-3.76l10.1-26.52h3.68l9.65,26.52H786.4z M778.59,188.47
					l-4.06,11.08h7.92L778.59,188.47z"/>
				<path class="st6" d="M833.57,210.63l-7.25-11.27h-6.84v11.27h-3.46v-26.52h9.88c0.43,0,0.85-0.01,1.26-0.02s0.83-0.01,1.26,0.02
					c0.93,0.05,1.73,0.15,2.42,0.3c0.69,0.15,1.29,0.34,1.8,0.58s0.96,0.51,1.33,0.83s0.7,0.63,0.98,0.96
					c0.35,0.43,0.71,1.04,1.07,1.86c0.36,0.81,0.54,1.88,0.54,3.21c0,0.28-0.03,0.68-0.08,1.22c-0.05,0.54-0.19,1.12-0.41,1.75
					c-0.23,0.63-0.58,1.25-1.05,1.88c-0.48,0.63-1.14,1.15-1.99,1.58c-0.33,0.18-0.68,0.33-1.05,0.47
					c-0.38,0.14-0.93,0.27-1.65,0.39l7.44,11.49H833.57z M833.09,191.87c0-0.17-0.01-0.43-0.04-0.77c-0.03-0.34-0.11-0.69-0.24-1.07
					c-0.14-0.37-0.35-0.76-0.64-1.16c-0.29-0.4-0.68-0.75-1.18-1.05c-0.7-0.42-1.45-0.65-2.23-0.69c-0.79-0.04-1.58-0.06-2.39-0.06
					h-6.87v9.31h7.06c0.5,0,1.01-0.01,1.54-0.02c0.53-0.01,1.04-0.07,1.56-0.19c0.51-0.11,0.99-0.29,1.43-0.54
					c0.44-0.25,0.83-0.6,1.18-1.05c0.3-0.42,0.51-0.86,0.64-1.31C833.02,192.84,833.09,192.37,833.09,191.87z"/>
				<path class="st6" d="M872.64,187.2v23.44h-3.57V187.2h-7.96v-3.08h19.46v3.08H872.64z"/>
				<path class="st6" d="M906.55,210.63v-26.52h18.25v3.12h-14.87v8.19h12.92v3.08h-12.92v9.05h15.32v3.08H906.55z"/>
			</g>
		</g>
	</g>
</g>
</svg>
